<svg width="1290" height="945" viewBox="0 0 1290 945" fill="none" xmlns="http://www.w3.org/2000/svg">
<path d="M1105.5 58.1002C1249.43 107.7 1309.81 258.51 1282.64 391.223C1255.46 523.936 1140.73 638.552 997.808 740.432C853.883 842.313 681.776 931.458 492.559 942.853C303.343 954.247 96.0096 887.891 36.6278 786.681C-22.754 684.8 64.809 546.725 60.7831 406.639C56.7572 265.883 -39.8641 122.446 19.5178 72.8461C78.8996 23.2463 294.285 67.4839 514.702 63.4623C736.126 60.111 962.582 8.50041 1105.5 58.1002Z" fill="#FF0066"/>
<path d="M193.162 512.512C187.768 514.322 183.351 517.221 180.53 520.804C177.709 524.386 176.625 528.473 177.431 532.49C188.785 529.204 200.984 527.443 213.343 527.305" fill="#248B14"/>
<path d="M185.339 516.344C179.67 519.966 192 510.435 197.073 509.367C202.276 508.6 207.686 508.751 212.776 509.806C236.585 513.275 260.961 516.935 281.283 526.028C302.343 535.559 317.053 549.971 331.225 564.153C334.153 566.638 336.172 569.55 337.121 572.655C337.688 575.781 335.392 579.403 330.885 580.28C328.633 580.585 326.309 580.546 324.083 580.166L290.75 576.124C275.586 574.218 259.742 572.312 247.526 565.926C233.524 558.644 226.636 546.863 220.372 535.788C215.582 527.267 203.366 522.806 196.308 514.953C196.308 514.914 191.433 512.513 185.339 516.344Z" fill="#248B14"/>
<path d="M395.651 602.564C394.869 602.369 394.111 602.133 393.383 601.859L387.034 599.686C381.564 597.78 373.628 594.977 363.991 591.317C352.683 587.051 341.718 582.387 331.14 577.344C325.216 574.466 319.122 571.263 313.142 567.813C307.161 564.363 301.294 560.379 294.746 556.871C291.53 555.128 288.119 553.554 284.543 552.163C281.035 550.868 277.364 549.784 273.574 548.922C269.832 548.026 266.091 547.206 262.576 546.12C259.107 545.058 255.874 543.679 252.967 542.021C247.772 538.88 243.217 535.29 239.419 531.346C235.734 527.744 232.503 524.293 229.13 521.377C224.105 516.6 217.329 512.778 209.46 510.282C206.495 509.493 203.388 508.974 200.219 508.738C201.05 508.704 201.883 508.704 202.714 508.738C205.101 508.917 207.444 509.301 209.686 509.882C217.776 512.28 224.771 516.083 229.952 520.9C233.41 523.836 236.698 527.267 240.411 530.851C244.19 534.708 248.707 538.213 253.846 541.278C256.654 542.881 259.783 544.209 263.143 545.224C266.601 546.272 270.286 547.13 274.055 547.969C277.977 548.832 281.773 549.936 285.393 551.267C289.043 552.674 292.522 554.274 295.795 556.052C302.456 559.597 308.295 563.524 314.247 567.051C320.199 570.577 326.18 573.761 332.075 576.582C343.895 582.301 355.119 586.933 364.671 590.688C374.223 594.444 382.046 597.303 387.346 599.324L393.554 601.668C394.283 601.934 394.983 602.233 395.651 602.564Z" fill="#E0E0E0"/>
<path d="M272.185 410.833C281.567 418.763 297.439 423.471 295.71 429.762C294.151 435.366 286.725 452.313 287.405 457.993C288.284 465.39 298.375 470.537 307.671 474.502C316.968 478.467 327.314 483.175 329.213 490.476C330.857 496.786 325.471 503.248 327.314 509.539C329.61 517.507 342.081 521.929 353.22 525.037C372.248 530.361 391.569 535.159 411.183 539.429C413.311 532.678 412.775 525.67 409.627 519.102C406.479 512.534 400.83 506.635 393.242 501.99C386.042 497.72 377.114 494.517 372.012 489.046C365.918 482.508 366.627 474.254 365.833 466.572C365.039 458.889 361.27 450.178 350.782 447.071C344.944 445.336 337.631 445.565 333.068 442.591C327.399 438.912 329.099 432.678 327.399 427.512C325.018 420.307 315.353 414.988 304.894 412.682C294.435 410.375 283.211 410.585 272.213 410.775" fill="#248B14"/>
<path d="M440.689 557.119C427.651 542.898 433.093 525.78 443.977 510.759C454.861 495.737 473.087 483.747 491.425 472.481C509.764 461.215 532.439 449.225 557.637 450.788C543.181 455.687 537.257 467.353 534.196 478.066C531.135 488.78 529.179 500.332 518.494 508.567C513.137 512.684 505.512 516.058 503.84 521.415C502.338 526.276 506.306 531.404 504.407 536.188C501.317 543.966 485.246 546.158 480.286 553.478C477.877 557.024 478.387 561.37 475.014 564.515C470.706 568.518 461.579 568.862 455.173 566.612C448.768 564.363 444.119 560.226 439.811 556.242" fill="#248B14"/>
<path d="M445.536 597.302C443.048 594.782 440.85 592.137 438.961 589.391C435.162 584.13 430.457 576.276 425.129 566.516C422.294 561.617 419.46 556.26 416.2 550.561C412.789 544.47 408.852 538.519 404.409 532.737C402.046 529.635 399.124 526.741 395.708 524.121C391.863 521.546 387.593 519.275 382.981 517.353C378.333 515.314 373.429 513.388 368.809 511.082C363.945 508.799 359.715 505.96 356.31 502.694C353.031 499.309 351.179 495.389 350.953 491.352C350.527 487.444 350.953 483.613 350.414 479.914C350.155 476.298 348.567 472.781 345.794 469.678C344.35 468.236 342.441 467.03 340.21 466.151C338.009 465.285 335.67 464.588 333.238 464.073C328.504 462.949 323.374 462.015 319.661 459.613C318.002 458.404 316.723 456.982 315.9 455.433C315.077 453.883 314.727 452.238 314.871 450.596C314.871 447.489 315.381 444.553 315.239 441.751C315.088 439.062 314.244 436.411 312.745 433.916C310.046 429.62 306.028 425.754 300.954 422.574C297.139 420.156 293.024 417.963 288.653 416.017C285.081 414.396 282.219 413.195 280.291 412.376L278.109 411.442C277.845 411.339 277.598 411.217 277.372 411.079L278.165 411.346L280.433 412.204C282.417 412.967 285.336 414.11 288.936 415.693C293.397 417.6 297.599 419.769 301.492 422.174C306.718 425.36 310.873 429.259 313.68 433.611C315.269 436.173 316.171 438.902 316.345 441.675C316.515 444.572 315.976 447.527 316.061 450.558C315.935 452.087 316.266 453.617 317.036 455.057C317.805 456.498 318.996 457.82 320.54 458.946C323.912 461.138 328.844 462.053 333.663 463.158C336.189 463.701 338.621 464.423 340.919 465.313C343.286 466.275 345.309 467.577 346.843 469.125C349.756 472.349 351.422 476.013 351.69 479.781C352.171 483.594 351.831 487.406 352.285 491.219C352.488 495.085 354.251 498.841 357.387 502.084C360.702 505.254 364.817 508.009 369.546 510.224C374.138 512.493 379.041 514.418 383.718 516.496C388.417 518.452 392.764 520.768 396.671 523.396C400.161 526.098 403.149 529.074 405.571 532.26C409.991 538.087 413.9 544.083 417.277 550.217C420.565 555.936 423.4 561.312 426.064 566.211C431.336 576.009 435.786 583.882 439.414 589.181C441.285 591.793 442.702 593.852 443.864 595.167C444.374 595.796 444.771 596.311 445.111 596.711C445.292 596.894 445.435 597.093 445.536 597.302Z" fill="#E0E0E0"/>
<path d="M557.041 450.521C556.339 450.846 555.589 451.12 554.802 451.341C553.328 451.836 551.146 452.599 548.453 453.685C540.823 456.756 533.868 460.529 527.79 464.894C523.618 467.901 519.897 471.176 516.68 474.673C514.902 476.63 513.275 478.647 511.804 480.716C510.302 482.851 508.97 485.101 507.156 487.35C505.468 489.703 503.365 491.911 500.892 493.926C498.193 495.987 494.919 497.671 491.255 498.883C487.557 500.072 483.978 501.422 480.541 502.924C477.159 504.518 474.697 506.848 473.569 509.52C471.188 514.953 472.463 520.843 469.714 526.2C466.964 531.556 461.806 535.731 458.376 540.02C455.047 544.15 452.985 548.688 452.311 553.364C451.699 557.457 451.823 561.585 452.679 565.659C454.057 571.569 456.171 577.391 459 583.063C459.935 584.97 460.672 586.571 461.211 587.715C461.513 588.246 461.741 588.794 461.891 589.354C461.773 589.235 461.677 589.107 461.607 588.973C461.437 588.642 461.211 588.242 460.927 587.772C460.332 586.742 459.482 585.179 458.461 583.178C455.399 577.524 453.122 571.691 451.659 565.754C450.716 561.63 450.526 557.443 451.092 553.288C451.717 548.482 453.791 543.812 457.186 539.562C460.757 535.102 465.689 530.965 468.523 525.875C471.358 520.786 469.855 514.972 472.321 509.215C473.552 506.34 476.201 503.832 479.833 502.104C483.336 500.583 486.981 499.214 490.745 498.006C494.253 496.849 497.391 495.243 499.985 493.278C502.395 491.327 504.451 489.19 506.107 486.911C507.78 484.7 509.254 482.47 510.812 480.316C512.315 478.225 513.98 476.189 515.801 474.216C519.086 470.692 522.884 467.397 527.139 464.379C533.322 460.015 540.439 456.295 548.255 453.342C550.368 452.534 552.544 451.802 554.774 451.15C555.509 450.908 556.266 450.698 557.041 450.521V450.521Z" fill="#E0E0E0"/>
<path d="M823.543 479.244C844.253 477.7 865.295 476.156 885.895 478.291C906.495 480.426 926.896 486.812 938.068 497.944C947.452 507.304 949.284 518.913 950.874 529.874L964.519 624.52C965.689 632.545 966.727 640.876 962.62 648.501C953.524 665.181 920.029 673.053 893.335 667.849C881.483 665.586 870.357 661.086 860.757 654.673C851.156 648.259 843.319 640.091 837.806 630.753C828.29 614.169 827.075 596.212 825.971 578.598L819.9 482.694L822.593 481.169" fill="#263238"/>
<path d="M248 642.782L254.425 662.283L867.966 816.118L1079 695.871V679.477L248 642.782Z" fill="#263238"/>
<path d="M468.087 554.522L1079 679.477L867.966 798.371L248 642.782L468.087 554.522Z" fill="#BA8C63"/>
<path d="M790.402 661.806L673.558 710.569L459.344 660.129L564.508 610.528L790.402 661.806Z" fill="#263238"/>
<path d="M661.569 659.748L692.59 668.593L721.315 655.115L673.513 641.867L645.605 654.372L661.569 659.748Z" fill="#455A64"/>
<path d="M432.076 523.946C433.047 527.301 459.344 660.129 459.344 660.129L673.514 710.569L645.318 568.476L432.076 523.946Z" fill="#EBEBEB"/>
<path d="M657.97 632.126C658.279 632.126 662.032 649.606 666.338 671.262C670.643 692.917 673.889 710.53 673.558 710.569C673.227 710.607 669.517 693.088 665.212 671.433C660.906 649.778 657.661 632.164 657.97 632.126Z" fill="#455A64"/>
<path d="M558.569 613.75C561.174 619.564 558.569 625.835 552.784 627.78C546.999 629.724 540.199 626.579 537.593 620.765C534.988 614.951 537.593 608.679 543.356 606.735C549.119 604.79 555.963 607.936 558.569 613.75Z" fill="#455A64"/>
<path d="M645.318 568.476C654.856 558.944 660.398 494.132 660.398 494.132L731.052 500.994C731.052 500.994 720.874 595.945 688.594 607.344L656.292 618.782" fill="#FFBE9D"/>
<path d="M877.438 588.816C877.438 588.816 908.703 619.068 906.826 644.269L851.341 632.831L872.735 588.739" fill="#263238"/>
<path d="M922.017 504.159C920.648 451.184 896.405 425.258 895.411 421.903C886.437 413.443 875.52 406.69 863.355 402.075C851.19 397.461 838.044 395.086 824.757 395.101L758.894 396.016C741.977 397.758 725.514 401.926 710.187 408.35L708.553 408.75V409.036C689.919 417.443 669.915 430.52 666.757 452.575L658.787 495.523L704.579 497.429C699.92 511.803 694.776 513.652 700.163 527.834L717.606 552.825C717.606 572.746 716.06 560.679 708.973 603.894L885.873 640.113C896.14 631.382 888.323 607.707 860.945 564.682C856.86 558.239 878.079 493.426 878.079 493.426L917.601 505.264" fill="#263238"/>
<path d="M714.912 480.997C714.473 481.937 713.941 482.843 713.323 483.704C712.219 485.42 710.629 487.86 708.752 490.929C705.131 497.048 700.075 505.912 699.589 516.492C699.303 521.427 700.338 526.351 702.614 530.884C704.586 534.556 707.102 537.99 710.099 541.102C712.638 543.79 714.846 545.849 716.347 547.316C717.161 548.027 717.9 548.799 718.555 549.623C717.646 548.976 716.797 548.268 716.016 547.507C714.427 546.134 712.108 544.133 709.392 541.464C706.246 538.37 703.615 534.912 701.576 531.189C699.158 526.542 698.053 521.466 698.353 516.378C698.616 511.333 699.817 506.358 701.908 501.642C703.594 497.811 705.617 494.095 707.957 490.529C709.922 487.479 711.645 485.077 712.837 483.438C713.452 482.578 714.146 481.762 714.912 480.997V480.997Z" fill="#263238"/>
<path d="M915.591 458.332L915.084 458.713C914.73 458.942 914.223 459.323 913.516 459.762C911.393 460.992 909.082 461.961 906.649 462.64C900.357 464.546 890.289 464.832 878.896 461.859C873.199 460.41 867.171 458.275 860.702 456.14C853.905 453.692 846.738 452.094 839.418 451.393C831.315 450.853 823.166 451.563 815.351 453.49C806.927 455.564 798.636 458.02 790.512 460.848C782.347 463.7 773.967 466.069 765.43 467.94C757.413 469.663 749.093 470.077 740.9 469.16C733.58 468.019 726.453 466.098 719.681 463.441C713.278 461.077 707.383 458.789 701.775 457.207C696.778 455.758 691.581 454.88 686.32 454.596C682.337 454.406 678.344 454.753 674.485 455.625C671.204 456.456 668.101 457.744 665.3 459.438C665.3 459.438 665.455 459.304 665.808 459.056C666.161 458.809 666.691 458.465 667.42 458.046C669.579 456.874 671.911 455.957 674.353 455.32C678.254 454.356 682.31 453.944 686.364 454.1C691.711 454.316 696.999 455.156 702.084 456.597C707.759 458.141 713.698 460.41 720.101 462.735C726.812 465.372 733.871 467.293 741.121 468.454C749.187 469.329 757.371 468.896 765.253 467.177C773.739 465.313 782.068 462.95 790.181 460.105C798.336 457.262 806.665 454.805 815.13 452.747C823.077 450.801 831.362 450.098 839.594 450.669C846.996 451.399 854.239 453.042 861.1 455.549C867.591 457.722 873.552 459.876 879.183 461.363C890.443 464.375 900.335 464.165 906.583 462.45C909.826 461.51 912.869 460.12 915.591 458.332V458.332Z" fill="#263238"/>
<path d="M861.276 553.035C860.828 553.24 860.354 553.4 859.863 553.512L855.712 554.655C850.598 556.054 845.374 557.13 840.08 557.877C836.43 558.374 832.733 558.565 829.04 558.449C824.764 558.256 820.531 557.615 816.433 556.543C807.756 554.369 798.968 550.385 789.364 547.221C784.674 545.727 779.862 544.536 774.968 543.656C770.396 542.899 765.772 542.396 761.124 542.15C753.235 541.811 745.328 542.278 737.566 543.542C732.304 544.395 727.135 545.626 722.11 547.221C720.322 547.717 718.975 548.269 718.048 548.555C717.582 548.743 717.093 548.884 716.59 548.975C717.034 548.75 717.491 548.547 717.959 548.365C718.865 548.022 720.167 547.431 721.956 546.859C726.951 545.11 732.126 543.77 737.411 542.856C745.223 541.476 753.202 540.932 761.169 541.235C765.874 541.458 770.558 541.948 775.189 542.703C780.145 543.584 785.016 544.788 789.761 546.306C799.476 549.489 808.198 553.474 816.742 555.666C820.756 556.717 824.898 557.357 829.085 557.572C832.772 557.727 836.469 557.581 840.124 557.134C845.392 556.449 850.606 555.482 855.734 554.236L859.952 553.264C860.383 553.148 860.827 553.071 861.276 553.035Z" fill="#263238"/>
<path d="M781.062 608.965C780.074 608.988 779.086 608.898 778.125 608.698C775.47 608.302 772.845 607.767 770.265 607.097C763.641 605.534 755.03 602.293 745.139 599.777C736.757 597.448 727.821 597.028 719.196 598.557C715.689 599.374 712.336 600.619 709.238 602.255C709.238 602.255 709.392 602.064 709.79 601.797C710.351 601.389 710.949 601.019 711.578 600.692C713.869 599.428 716.371 598.477 718.997 597.87C725.621 596.174 735.424 596.288 745.492 598.824C755.56 601.359 764.061 604.695 770.53 606.449C773.754 607.344 776.403 607.974 778.236 608.355C779.197 608.485 780.143 608.689 781.062 608.965Z" fill="#263238"/>
<g opacity="0.1">
<path opacity="0.1" d="M862.711 492.454C862.711 492.454 833.876 547.335 859.024 583.211L870.814 579.399L860.945 564.53C860.276 562.275 860.163 559.924 860.614 557.629C862.071 549.813 864.875 537.061 868.629 524.212L862.711 492.454Z" fill="black"/>
</g>
<path d="M814.578 294.355C828.798 305.069 835.134 321.92 835.598 338.199C836.062 354.479 834.406 372.951 834.847 389.935L863.683 389.44C882.737 389.935 904.331 388.201 922.569 386.981C925.618 387.006 928.622 386.349 931.29 385.074C935.485 382.615 936.434 377.716 937.008 373.37C937.914 366.526 938.775 359.454 936.501 352.859C934.226 346.263 927.912 340.182 919.963 339.686C917.159 339.515 914.223 340.029 911.617 339.114C910.138 338.467 908.858 337.526 907.879 336.37C906.901 335.214 906.252 333.875 905.987 332.462C905.258 329.678 905.369 326.743 904.883 323.96C904.085 319.749 901.989 315.802 898.815 312.531C895.641 309.261 891.506 306.789 886.844 305.374C880.927 303.639 873.795 303.467 869.909 299.197C865.184 294.07 868.275 286.654 868.54 280.135C868.712 275.602 867.379 271.122 864.7 267.221C862.02 263.321 858.105 260.163 853.416 258.12C848.726 256.076 843.458 255.233 838.232 255.688C833.006 256.144 828.04 257.879 823.918 260.691" fill="#263238"/>
<path d="M792.278 426.288C783.587 426.27 775.239 423.359 768.971 418.161C762.703 412.962 758.999 405.877 758.629 398.38C758.011 385.837 757.503 373.942 757.503 373.942C757.503 373.942 729.706 371.711 727.718 348.055C725.731 324.398 726.57 269.784 726.57 269.784C741.744 263.166 758.69 260.166 775.656 261.094C792.623 262.022 808.994 266.845 823.079 275.064L827.34 277.561L826.082 397.389C826 405.081 822.402 412.434 816.071 417.847C809.74 423.259 801.188 426.293 792.278 426.288Z" fill="#FFBE9D"/>
<path d="M738.758 314.657C739.317 314.175 739.697 313.56 739.852 312.89C740.006 312.221 739.926 311.528 739.624 310.897C739.321 310.267 738.809 309.728 738.152 309.349C737.495 308.97 736.722 308.767 735.932 308.767C735.141 308.767 734.369 308.97 733.712 309.349C733.054 309.728 732.542 310.267 732.24 310.897C731.937 311.528 731.858 312.221 732.012 312.89C732.166 313.56 732.547 314.175 733.106 314.657C733.475 314.98 733.915 315.236 734.401 315.411C734.886 315.586 735.406 315.676 735.932 315.676C736.458 315.676 736.978 315.586 737.463 315.411C737.948 315.236 738.388 314.98 738.758 314.657Z" fill="#263238"/>
<path d="M728.911 307.413C729.374 307.814 731.935 305.869 735.711 305.66C739.487 305.45 742.335 306.975 742.732 306.536C743.13 306.098 742.445 305.621 741.187 304.897C739.498 303.989 737.518 303.568 735.534 303.695C733.549 303.821 731.663 304.489 730.147 305.602C729.043 306.479 728.69 307.318 728.911 307.413Z" fill="#263238"/>
<path d="M772.606 309.434C771.958 309.826 771.461 310.375 771.175 311.012C770.889 311.648 770.829 312.343 771.001 313.01C771.173 313.676 771.57 314.283 772.142 314.754C772.714 315.226 773.435 315.54 774.214 315.657C774.993 315.775 775.794 315.69 776.517 315.414C777.241 315.138 777.853 314.683 778.276 314.106C778.7 313.53 778.915 312.858 778.897 312.176C778.878 311.493 778.625 310.831 778.17 310.273C777.56 309.525 776.632 309.017 775.589 308.859C774.545 308.702 773.472 308.909 772.606 309.434V309.434Z" fill="#263238"/>
<path d="M770.111 308.138C770.574 308.538 773.136 306.594 776.911 306.384C780.687 306.174 783.535 307.699 783.932 307.261C784.33 306.822 783.645 306.346 782.409 305.621C780.722 304.71 778.741 304.289 776.757 304.421C774.77 304.537 772.88 305.206 771.369 306.327C770.243 307.204 769.89 307.966 770.111 308.138Z" fill="#263238"/>
<path d="M756.709 333.472C754.714 332.911 752.623 332.646 750.526 332.69C749.533 332.69 748.738 332.5 748.65 332.042C748.548 331.189 748.732 330.329 749.18 329.564C749.996 327.353 750.813 325.123 751.697 322.778C755.141 313.113 757.481 305.164 756.907 305.011C756.333 304.859 753.088 312.636 749.621 322.168C748.826 324.532 748.053 326.781 747.281 328.992C746.72 330.125 746.619 331.388 746.994 332.576C747.159 332.893 747.406 333.173 747.716 333.394C748.026 333.616 748.391 333.773 748.782 333.853C749.342 333.946 749.913 333.978 750.482 333.949C754.324 334.006 756.709 333.739 756.709 333.472Z" fill="#263238"/>
<path d="M769.25 336.427C773.047 334.196 758.762 341.974 751.056 342.145C752.457 343.79 754.463 344.974 756.746 345.504C759.029 346.034 761.453 345.878 763.619 345.062C771.656 341.955 769.25 336.427 769.25 336.427Z" fill="white"/>
<path d="M757.349 373.599C770.02 373.135 782.244 369.418 792.455 362.924C792.455 362.924 785.235 380.423 757.724 379.737L757.349 373.599Z" fill="#EB996E"/>
<path d="M825.419 326.381C815.506 333.281 803.495 315.42 798.174 304.23C792.852 293.04 791.219 280.649 790.446 268.43C790.181 264.427 790.137 260.043 792.83 256.897C795.524 253.752 796.65 257.431 800.05 254.534C805.901 249.539 800.337 249.52 806.188 250.13C816.19 251.179 837.983 266.143 839.815 275.197C841.648 284.252 840.168 293.555 838.689 302.667C838.005 306.822 837.32 310.997 836.658 315.153C836.42 318.108 835.441 320.983 833.788 323.578C831.955 326.018 828.356 327.601 825.419 326.381" fill="#263238"/>
<path d="M825.773 306.803C825.772 305.882 826.181 304.995 826.917 304.328C827.653 303.661 828.659 303.264 829.725 303.22C834.847 303.105 843.215 304.859 844.01 317.059C845.136 334.463 825.729 330.117 825.662 329.621C825.596 329.126 825.729 313.59 825.773 306.803Z" fill="#FFBE9D"/>
<path d="M830.1 322.778C830.1 322.778 830.475 322.968 831.072 323.178C831.488 323.329 831.934 323.406 832.385 323.406C832.836 323.406 833.283 323.329 833.699 323.178C835.797 322.397 837.408 319.366 837.298 316.258C837.258 314.759 836.828 313.287 836.039 311.95C835.81 311.418 835.435 310.94 834.947 310.559C834.459 310.177 833.872 309.903 833.235 309.758C832.826 309.679 832.398 309.731 832.029 309.902C831.66 310.074 831.375 310.354 831.226 310.692C830.983 311.188 831.226 311.531 831.027 311.569C830.829 311.607 830.564 311.283 830.696 310.559C830.775 310.125 831.024 309.727 831.403 309.434C831.936 309.044 832.627 308.852 833.324 308.9C834.16 309 834.953 309.284 835.626 309.725C836.299 310.165 836.829 310.748 837.166 311.416C838.131 312.883 838.662 314.534 838.711 316.22C838.711 319.728 836.923 323.121 834.052 323.979C833.524 324.145 832.958 324.204 832.399 324.151C831.84 324.098 831.303 323.935 830.829 323.674C830.166 323.197 830.034 322.816 830.1 322.778Z" fill="#EB996E"/>
<path d="M792.72 257.012C789.821 265.03 784.862 272.379 778.214 278.512C771.565 284.645 763.399 289.402 754.324 292.43C753.59 292.769 752.771 292.946 751.939 292.946C751.108 292.946 750.288 292.769 749.555 292.43C747.877 291.286 748.517 288.884 749.93 287.493C751.343 286.101 753.308 285.129 754.346 283.509L744.079 288.522C742.456 289.421 740.662 290.067 738.78 290.429C737.832 290.602 736.849 290.562 735.924 290.312C735 290.061 734.166 289.609 733.503 288.999C733.199 288.682 732.975 288.314 732.845 287.918C732.715 287.523 732.682 287.108 732.749 286.7C732.815 286.293 732.98 285.902 733.231 285.553C733.483 285.204 733.816 284.903 734.21 284.672C731.891 287.95 725.952 288.255 722.53 285.796C720.918 284.463 719.766 282.771 719.2 280.907C718.635 279.042 718.68 277.079 719.328 275.236C720.688 271.556 723.175 268.263 726.526 265.704C740.723 253.771 761.367 249.444 781.128 248.281C787.221 247.745 793.372 247.976 799.388 248.967C805.349 250.111 814.578 249.692 825.331 259.852" fill="#263238"/>
<path d="M744.189 298.511C743.969 299.064 740.37 298.359 735.932 298.511C731.494 298.664 727.895 299.369 727.652 298.854C727.409 298.339 730.942 296.605 735.866 296.529C740.789 296.452 744.432 298.034 744.189 298.511Z" fill="#263238"/>
<path d="M784.528 298.911C784.308 299.445 780.819 298.778 776.536 298.606C772.252 298.435 768.72 298.759 768.543 298.206C768.366 297.653 771.965 296.414 776.646 296.624C781.327 296.834 784.749 298.416 784.528 298.911Z" fill="#263238"/>
<path d="M837.32 288.694C836.989 288.522 838.071 286.788 838.844 283.814C839.873 279.962 839.621 275.938 838.115 272.205C836.512 268.503 833.744 265.261 830.122 262.845C827.318 260.939 825.199 260.233 825.331 259.928C825.464 259.623 827.782 259.928 831.05 261.701C835.326 263.984 838.58 267.451 840.28 271.537C841.98 275.622 842.027 280.084 840.411 284.195C839.153 287.302 837.519 288.827 837.32 288.694Z" fill="#455A64"/>
<path d="M862.711 492.454L878.432 576.959L751.851 617.772L772.341 654.258L905.545 618.325C916.038 615.474 924.966 609.417 930.657 601.289C936.347 593.162 938.409 583.522 936.456 574.176L919.433 492.492L862.711 492.454Z" fill="#FFBE9D"/>
<path d="M752.624 617.524C752.624 617.524 729.065 611.043 717.761 608.546C713.345 607.573 694.511 616.171 681.484 623.3C681.484 623.3 663.556 632.488 665.013 635.309C666.603 638.436 673.227 637.788 683.758 633.518C683.758 633.518 680.071 642.725 687.313 642.534C687.313 642.534 683.714 652.504 690.493 653.533C697.271 654.563 698.861 641.848 704.822 641.162C710.784 640.475 723.148 639.789 723.148 639.789C723.148 639.789 733.415 654.486 741.385 655.516C749.356 656.545 773.091 654.22 773.091 654.22L752.624 617.524Z" fill="#FFBE9D"/>
<path d="M704.933 621.565C699.191 625.472 692.99 628.845 686.43 631.63C689.155 629.562 692.114 627.736 695.262 626.178C698.292 624.357 701.533 622.811 704.933 621.565V621.565Z" fill="#EB996E"/>
<path d="M706.964 627.227C703.523 629.137 699.887 630.771 696.101 632.107C692.476 633.729 688.684 635.056 684.774 636.072C688.199 634.15 691.829 632.516 695.615 631.192C699.247 629.568 703.046 628.241 706.964 627.227V627.227Z" fill="#EB996E"/>
<path d="M703.299 640.914C700.874 641.693 698.33 642.162 695.748 642.305C693.2 642.802 690.581 642.975 687.976 642.82C690.397 642.027 692.942 641.552 695.527 641.409C698.075 640.913 700.694 640.746 703.299 640.914Z" fill="#EB996E"/>
<path d="M1092.1 82.8123L1092.1 82.8123C1102.6 82.8026 1112.98 83.724 1122.67 85.5194C1132.35 87.3155 1141.11 89.9455 1148.46 93.2392C1155.81 96.5381 1161.52 100.404 1165.35 104.555C1169.17 108.693 1170.99 112.957 1171 117.109V188.439C1170.99 196.815 1163.49 205.55 1148.51 212.283C1133.69 218.944 1113.46 222.736 1092.26 222.736H799.957H799.528L799.136 222.912L739.125 249.907V224.736V222.736H737.125H726.894C705.7 222.736 685.474 218.943 670.665 212.282C655.697 205.548 648.213 196.814 648.213 188.442V117.106C648.213 108.734 655.697 99.9995 670.665 93.2664C685.474 86.6045 705.7 82.8123 726.894 82.8123L1092.1 82.8123Z" stroke="#7879F1" stroke-width="4"/>
<g filter="url(#filter0_b_8_5)">
<path d="M700.036 132.348H718.699V139.409H691.247V96.7524H700.036V132.348ZM740.8 139.995C736.152 139.995 732.363 138.569 729.433 135.717C726.523 132.866 725.068 129.067 725.068 124.321V123.5C725.068 120.317 725.683 117.475 726.913 114.975C728.144 112.456 729.882 110.522 732.128 109.174C734.394 107.807 736.972 107.124 739.863 107.124C744.199 107.124 747.607 108.491 750.087 111.225C752.587 113.959 753.837 117.836 753.837 122.856V126.313H733.652C733.925 128.383 734.745 130.043 736.113 131.293C737.499 132.543 739.247 133.168 741.357 133.168C744.618 133.168 747.167 131.987 749.003 129.624L753.163 134.282C751.894 136.079 750.175 137.485 748.007 138.5C745.839 139.497 743.437 139.995 740.8 139.995ZM739.833 113.979C738.154 113.979 736.786 114.545 735.732 115.678C734.697 116.811 734.033 118.432 733.74 120.542H745.517V119.868C745.478 117.993 744.97 116.547 743.993 115.532C743.017 114.497 741.63 113.979 739.833 113.979ZM771.808 99.9165V107.709H777.228V113.92H771.808V129.741C771.808 130.913 772.033 131.752 772.482 132.26C772.931 132.768 773.79 133.022 775.06 133.022C775.997 133.022 776.827 132.954 777.55 132.817V139.233C775.89 139.741 774.181 139.995 772.423 139.995C766.486 139.995 763.458 136.997 763.341 131V113.92H758.712V107.709H763.341V99.9165H771.808ZM788.079 109.848L784.095 107.534C785.775 104.897 786.644 102.172 786.702 99.3599V94.4087H793.441V98.9497C793.441 100.708 792.952 102.612 791.976 104.663C790.999 106.713 789.7 108.442 788.079 109.848ZM812.788 130.649C812.788 129.614 812.271 128.803 811.236 128.217C810.22 127.612 808.579 127.075 806.314 126.606C798.775 125.024 795.005 121.821 795.005 116.997C795.005 114.184 796.167 111.84 798.492 109.965C800.835 108.071 803.892 107.124 807.661 107.124C811.685 107.124 814.898 108.071 817.3 109.965C819.722 111.86 820.933 114.321 820.933 117.348H812.466C812.466 116.137 812.075 115.141 811.294 114.36C810.513 113.559 809.292 113.159 807.632 113.159C806.206 113.159 805.103 113.481 804.322 114.125C803.54 114.77 803.15 115.59 803.15 116.586C803.15 117.524 803.589 118.286 804.468 118.872C805.367 119.438 806.87 119.936 808.98 120.366C811.089 120.776 812.867 121.245 814.312 121.772C818.784 123.413 821.021 126.254 821.021 130.297C821.021 133.188 819.781 135.532 817.3 137.329C814.82 139.106 811.617 139.995 807.691 139.995C805.034 139.995 802.671 139.526 800.601 138.588C798.55 137.631 796.939 136.333 795.767 134.692C794.595 133.032 794.009 131.245 794.009 129.331H802.036C802.115 130.834 802.671 131.987 803.706 132.788C804.742 133.588 806.128 133.989 807.867 133.989C809.488 133.989 810.708 133.686 811.529 133.081C812.368 132.456 812.788 131.645 812.788 130.649ZM864.609 130.649C864.609 129.614 864.091 128.803 863.056 128.217C862.04 127.612 860.4 127.075 858.134 126.606C850.595 125.024 846.825 121.821 846.825 116.997C846.825 114.184 847.988 111.84 850.312 109.965C852.656 108.071 855.712 107.124 859.482 107.124C863.505 107.124 866.718 108.071 869.12 109.965C871.542 111.86 872.753 114.321 872.753 117.348H864.286C864.286 116.137 863.896 115.141 863.115 114.36C862.333 113.559 861.113 113.159 859.452 113.159C858.027 113.159 856.923 113.481 856.142 114.125C855.361 114.77 854.97 115.59 854.97 116.586C854.97 117.524 855.409 118.286 856.288 118.872C857.187 119.438 858.691 119.936 860.8 120.366C862.909 120.776 864.687 121.245 866.132 121.772C870.605 123.413 872.841 126.254 872.841 130.297C872.841 133.188 871.601 135.532 869.12 137.329C866.64 139.106 863.437 139.995 859.511 139.995C856.855 139.995 854.492 139.526 852.421 138.588C850.37 137.631 848.759 136.333 847.587 134.692C846.415 133.032 845.829 131.245 845.829 129.331H853.857C853.935 130.834 854.492 131.987 855.527 132.788C856.562 133.588 857.949 133.989 859.687 133.989C861.308 133.989 862.529 133.686 863.349 133.081C864.189 132.456 864.609 131.645 864.609 130.649ZM895.909 139.995C891.261 139.995 887.472 138.569 884.542 135.717C881.632 132.866 880.177 129.067 880.177 124.321V123.5C880.177 120.317 880.792 117.475 882.023 114.975C883.253 112.456 884.992 110.522 887.238 109.174C889.503 107.807 892.081 107.124 894.972 107.124C899.308 107.124 902.716 108.491 905.197 111.225C907.697 113.959 908.947 117.836 908.947 122.856V126.313H888.761C889.034 128.383 889.855 130.043 891.222 131.293C892.609 132.543 894.357 133.168 896.466 133.168C899.728 133.168 902.277 131.987 904.113 129.624L908.273 134.282C907.003 136.079 905.284 137.485 903.117 138.5C900.949 139.497 898.546 139.995 895.909 139.995ZM894.943 113.979C893.263 113.979 891.896 114.545 890.841 115.678C889.806 116.811 889.142 118.432 888.849 120.542H900.626V119.868C900.587 117.993 900.079 116.547 899.103 115.532C898.126 114.497 896.74 113.979 894.943 113.979ZM931.37 139.995C926.722 139.995 922.933 138.569 920.003 135.717C917.093 132.866 915.638 129.067 915.638 124.321V123.5C915.638 120.317 916.253 117.475 917.484 114.975C918.714 112.456 920.452 110.522 922.699 109.174C924.964 107.807 927.542 107.124 930.433 107.124C934.769 107.124 938.177 108.491 940.658 111.225C943.158 113.959 944.408 117.836 944.408 122.856V126.313H924.222C924.495 128.383 925.316 130.043 926.683 131.293C928.07 132.543 929.818 133.168 931.927 133.168C935.189 133.168 937.738 131.987 939.574 129.624L943.734 134.282C942.464 136.079 940.745 137.485 938.577 138.5C936.409 139.497 934.007 139.995 931.37 139.995ZM930.404 113.979C928.724 113.979 927.357 114.545 926.302 115.678C925.267 116.811 924.603 118.432 924.31 120.542H936.087V119.868C936.048 117.993 935.54 116.547 934.564 115.532C933.587 114.497 932.2 113.979 930.404 113.979ZM979.118 139.409H970.622V107.709H979.118V139.409ZM970.124 99.5063C970.124 98.2368 970.544 97.1919 971.384 96.3716C972.243 95.5513 973.406 95.1411 974.87 95.1411C976.316 95.1411 977.468 95.5513 978.327 96.3716C979.187 97.1919 979.616 98.2368 979.616 99.5063C979.616 100.795 979.177 101.85 978.298 102.67C977.439 103.491 976.296 103.901 974.87 103.901C973.445 103.901 972.292 103.491 971.413 102.67C970.554 101.85 970.124 100.795 970.124 99.5063ZM991.435 139.409V113.92H986.718V107.709H991.435V105.014C991.435 101.459 992.45 98.7056 994.482 96.7524C996.533 94.7798 999.394 93.7935 1003.07 93.7935C1004.24 93.7935 1005.67 93.9888 1007.37 94.3794L1007.28 100.942C1006.58 100.766 1005.72 100.678 1004.71 100.678C1001.52 100.678 999.931 102.172 999.931 105.161V107.709H1006.23V113.92H999.931V139.409H991.435ZM1043.4 127.426L1049.26 107.709H1058.34L1045.6 144.331L1044.9 146C1043 150.141 1039.88 152.211 1035.52 152.211C1034.29 152.211 1033.04 152.026 1031.77 151.655V145.239L1033.06 145.268C1034.66 145.268 1035.85 145.024 1036.63 144.536C1037.43 144.047 1038.06 143.237 1038.51 142.104L1039.51 139.497L1028.4 107.709H1037.51L1043.4 127.426ZM1062.9 123.266C1062.9 120.122 1063.5 117.319 1064.71 114.858C1065.92 112.397 1067.66 110.493 1069.93 109.145C1072.21 107.797 1074.86 107.124 1077.87 107.124C1082.14 107.124 1085.63 108.432 1088.33 111.049C1091.04 113.667 1092.55 117.221 1092.87 121.713L1092.93 123.881C1092.93 128.745 1091.57 132.651 1088.85 135.6C1086.14 138.53 1082.5 139.995 1077.93 139.995C1073.35 139.995 1069.7 138.53 1066.97 135.6C1064.25 132.67 1062.9 128.686 1062.9 123.647V123.266ZM1071.36 123.881C1071.36 126.889 1071.93 129.194 1073.06 130.795C1074.19 132.377 1075.82 133.168 1077.93 133.168C1079.98 133.168 1081.58 132.387 1082.73 130.825C1083.88 129.243 1084.46 126.723 1084.46 123.266C1084.46 120.317 1083.88 118.032 1082.73 116.411C1081.58 114.79 1079.96 113.979 1077.87 113.979C1075.8 113.979 1074.19 114.79 1073.06 116.411C1071.93 118.012 1071.36 120.502 1071.36 123.881ZM1120.12 136.186C1118.03 138.725 1115.14 139.995 1111.45 139.995C1108.05 139.995 1105.46 139.018 1103.66 137.065C1101.88 135.112 1100.97 132.25 1100.93 128.481V107.709H1109.4V128.188C1109.4 131.489 1110.91 133.139 1113.91 133.139C1116.78 133.139 1118.76 132.143 1119.83 130.151V107.709H1128.33V139.409H1120.36L1120.12 136.186ZM692.044 187.266C692.044 182.286 693.148 178.35 695.355 175.459C697.581 172.569 700.628 171.124 704.495 171.124C707.894 171.124 710.599 172.422 712.611 175.02L713.167 171.709H720.609V215.596H712.113V200.684C710.159 202.891 707.601 203.995 704.437 203.995C700.667 203.995 697.659 202.53 695.413 199.6C693.167 196.67 692.044 192.559 692.044 187.266ZM700.511 187.881C700.511 190.909 701.038 193.213 702.093 194.795C703.167 196.377 704.671 197.168 706.605 197.168C709.202 197.168 711.038 196.133 712.113 194.063V180.967C711.058 178.975 709.242 177.979 706.663 177.979C704.71 177.979 703.197 178.77 702.122 180.352C701.048 181.934 700.511 184.444 700.511 187.881ZM749.273 200.186C747.183 202.725 744.292 203.995 740.601 203.995C737.202 203.995 734.605 203.018 732.808 201.065C731.031 199.112 730.122 196.25 730.083 192.481V171.709H738.55V192.188C738.55 195.489 740.054 197.139 743.062 197.139C745.933 197.139 747.906 196.143 748.98 194.151V171.709H757.476V203.409H749.507L749.273 200.186ZM785.232 203.409C784.841 202.647 784.558 201.7 784.382 200.567C782.331 202.852 779.665 203.995 776.384 203.995C773.279 203.995 770.7 203.096 768.65 201.299C766.618 199.502 765.603 197.237 765.603 194.502C765.603 191.143 766.843 188.565 769.324 186.768C771.824 184.971 775.427 184.063 780.134 184.043H784.031V182.227C784.031 180.762 783.65 179.59 782.888 178.711C782.146 177.833 780.964 177.393 779.343 177.393C777.917 177.393 776.794 177.735 775.974 178.418C775.173 179.102 774.773 180.04 774.773 181.231H766.306C766.306 179.395 766.872 177.696 768.005 176.133C769.138 174.571 770.74 173.35 772.81 172.471C774.88 171.573 777.204 171.124 779.783 171.124C783.689 171.124 786.784 172.11 789.07 174.083C791.374 176.036 792.527 178.79 792.527 182.344V196.084C792.546 199.092 792.966 201.368 793.786 202.911V203.409H785.232ZM778.23 197.52C779.48 197.52 780.632 197.247 781.687 196.7C782.742 196.133 783.523 195.381 784.031 194.444V188.995H780.867C776.628 188.995 774.372 190.459 774.099 193.389L774.07 193.887C774.07 194.942 774.441 195.811 775.183 196.495C775.925 197.178 776.941 197.52 778.23 197.52ZM810.966 203.409H802.47V158.409H810.966V203.409ZM829.904 203.409H821.408V171.709H829.904V203.409ZM820.909 163.506C820.909 162.237 821.329 161.192 822.169 160.372C823.029 159.551 824.191 159.141 825.656 159.141C827.101 159.141 828.253 159.551 829.113 160.372C829.972 161.192 830.402 162.237 830.402 163.506C830.402 164.795 829.962 165.85 829.083 166.67C828.224 167.491 827.081 167.901 825.656 167.901C824.23 167.901 823.077 167.491 822.199 166.67C821.339 165.85 820.909 164.795 820.909 163.506ZM842.22 203.409V177.92H837.503V171.709H842.22V169.014C842.22 165.459 843.236 162.706 845.267 160.752C847.318 158.78 850.179 157.793 853.851 157.793C855.023 157.793 856.458 157.989 858.158 158.379L858.07 164.942C857.367 164.766 856.507 164.678 855.492 164.678C852.308 164.678 850.716 166.172 850.716 169.161V171.709H857.015V177.92H850.716V203.409H842.22ZM876.245 191.426L882.105 171.709H891.187L878.443 208.331L877.74 210C875.845 214.141 872.72 216.211 868.365 216.211C867.134 216.211 865.884 216.026 864.615 215.655V209.239L865.904 209.268C867.505 209.268 868.697 209.024 869.478 208.536C870.279 208.047 870.904 207.237 871.353 206.104L872.349 203.497L861.245 171.709H870.357L876.245 191.426ZM917.783 203.409V177.92H913.066V171.709H917.783V169.014C917.783 165.459 918.798 162.706 920.829 160.752C922.88 158.78 925.742 157.793 929.413 157.793C930.585 157.793 932.021 157.989 933.72 158.379L933.632 164.942C932.929 164.766 932.07 164.678 931.054 164.678C927.87 164.678 926.279 166.172 926.279 169.161V171.709H932.577V177.92H926.279V203.409H917.783ZM938.654 187.266C938.654 184.122 939.259 181.319 940.47 178.858C941.681 176.397 943.419 174.493 945.685 173.145C947.97 171.797 950.616 171.124 953.624 171.124C957.902 171.124 961.388 172.432 964.083 175.049C966.798 177.667 968.312 181.221 968.624 185.713L968.683 187.881C968.683 192.745 967.325 196.651 964.611 199.6C961.896 202.53 958.253 203.995 953.683 203.995C949.113 203.995 945.46 202.53 942.726 199.6C940.011 196.67 938.654 192.686 938.654 187.647V187.266ZM947.12 187.881C947.12 190.889 947.687 193.194 948.82 194.795C949.952 196.377 951.574 197.168 953.683 197.168C955.734 197.168 957.335 196.387 958.488 194.825C959.64 193.243 960.216 190.723 960.216 187.266C960.216 184.317 959.64 182.032 958.488 180.411C957.335 178.79 955.714 177.979 953.624 177.979C951.554 177.979 949.952 178.79 948.82 180.411C947.687 182.012 947.12 184.502 947.12 187.881ZM994.71 179.649C993.558 179.493 992.542 179.415 991.663 179.415C988.46 179.415 986.361 180.499 985.365 182.667V203.409H976.898V171.709H984.896L985.13 175.489C986.829 172.579 989.183 171.124 992.191 171.124C993.128 171.124 994.007 171.25 994.827 171.504L994.71 179.649ZM1029.89 163.917V171.709H1035.31V177.92H1029.89V193.741C1029.89 194.913 1030.11 195.752 1030.56 196.26C1031.01 196.768 1031.87 197.022 1033.14 197.022C1034.08 197.022 1034.91 196.954 1035.63 196.817V203.233C1033.97 203.741 1032.26 203.995 1030.51 203.995C1024.57 203.995 1021.54 200.997 1021.42 195V177.92H1016.79V171.709H1021.42V163.917H1029.89ZM1051.29 175.167C1053.53 172.471 1056.36 171.124 1059.76 171.124C1066.63 171.124 1070.12 175.118 1070.21 183.106V203.409H1061.75V183.34C1061.75 181.524 1061.36 180.186 1060.58 179.327C1059.79 178.448 1058.5 178.008 1056.68 178.008C1054.2 178.008 1052.4 178.965 1051.29 180.879V203.409H1042.82V158.409H1051.29V175.167ZM1097.97 203.409C1097.58 202.647 1097.3 201.7 1097.12 200.567C1095.07 202.852 1092.4 203.995 1089.12 203.995C1086.02 203.995 1083.44 203.096 1081.39 201.299C1079.36 199.502 1078.34 197.237 1078.34 194.502C1078.34 191.143 1079.58 188.565 1082.06 186.768C1084.56 184.971 1088.17 184.063 1092.87 184.043H1096.77V182.227C1096.77 180.762 1096.39 179.59 1095.63 178.711C1094.88 177.833 1093.7 177.393 1092.08 177.393C1090.66 177.393 1089.53 177.735 1088.71 178.418C1087.91 179.102 1087.51 180.04 1087.51 181.231H1079.04C1079.04 179.395 1079.61 177.696 1080.74 176.133C1081.88 174.571 1083.48 173.35 1085.55 172.471C1087.62 171.573 1089.94 171.124 1092.52 171.124C1096.43 171.124 1099.52 172.11 1101.81 174.083C1104.11 176.036 1105.26 178.79 1105.26 182.344V196.084C1105.28 199.092 1105.7 201.368 1106.52 202.911V203.409H1097.97ZM1090.97 197.52C1092.22 197.52 1093.37 197.247 1094.43 196.7C1095.48 196.133 1096.26 195.381 1096.77 194.444V188.995H1093.6C1089.37 188.995 1087.11 190.459 1086.84 193.389L1086.81 193.887C1086.81 194.942 1087.18 195.811 1087.92 196.495C1088.66 197.178 1089.68 197.52 1090.97 197.52ZM1124.91 163.917V171.709H1130.33V177.92H1124.91V193.741C1124.91 194.913 1125.13 195.752 1125.58 196.26C1126.03 196.768 1126.89 197.022 1128.16 197.022C1129.1 197.022 1129.93 196.954 1130.65 196.817V203.233C1128.99 203.741 1127.28 203.995 1125.52 203.995C1119.58 203.995 1116.56 200.997 1116.44 195V177.92H1111.81V171.709H1116.44V163.917H1124.91Z" fill="black"/>
</g>
<path d="M559.904 68.0001L559.906 68.0001C569.887 67.9895 579.764 68.9891 588.969 70.9364C598.177 72.8843 606.502 75.7362 613.479 79.3071C620.464 82.8817 625.899 87.0754 629.558 91.5959C633.207 96.103 634.994 100.811 635 105.461V183.013C634.987 192.369 627.695 201.877 613.534 209.14C599.453 216.361 580.221 220.475 560.063 220.475H281.509H281.026L280.596 220.695L223.634 249.93V222.475V220.475H221.634H211.884C191.731 220.475 172.505 216.361 158.432 209.138C144.279 201.875 137 192.368 137 183.016V105.459C137 96.1072 144.279 86.6 158.432 79.3366C172.505 72.1143 191.731 68.0001 211.884 68.0001L559.904 68.0001Z" stroke="#7879F1" stroke-width="4"/>
<g filter="url(#filter1_b_8_5)">
<path d="M189.649 119.695L195.391 89.3438H204.151L194.688 132H185.84L178.897 103.465L171.953 132H163.106L153.643 89.3438H162.403L168.174 119.637L175.205 89.3438H182.647L189.649 119.695ZM219.631 103.758C221.877 101.062 224.7 99.7148 228.098 99.7148C234.973 99.7148 238.459 103.709 238.557 111.697V132H230.09V111.932C230.09 110.115 229.7 108.777 228.918 107.918C228.137 107.039 226.838 106.6 225.022 106.6C222.541 106.6 220.744 107.557 219.631 109.471V132H211.164V87H219.631V103.758ZM259.78 120.018L265.639 100.301H274.721L261.977 136.922L261.274 138.592C259.379 142.732 256.254 144.803 251.899 144.803C250.668 144.803 249.418 144.617 248.149 144.246V137.83L249.438 137.859C251.039 137.859 252.231 137.615 253.012 137.127C253.813 136.639 254.438 135.828 254.887 134.695L255.883 132.088L244.78 100.301H253.891L259.78 120.018ZM297.684 115.916C297.684 110.975 298.787 107.039 300.994 104.109C303.221 101.18 306.258 99.7148 310.106 99.7148C313.192 99.7148 315.741 100.867 317.752 103.172V87H326.248V132H318.602L318.192 128.631C316.082 131.268 313.368 132.586 310.047 132.586C306.317 132.586 303.319 131.121 301.053 128.191C298.807 125.242 297.684 121.15 297.684 115.916ZM306.151 116.531C306.151 119.5 306.668 121.775 307.703 123.357C308.739 124.939 310.243 125.73 312.215 125.73C314.832 125.73 316.678 124.627 317.752 122.42V109.91C316.698 107.703 314.871 106.6 312.274 106.6C308.192 106.6 306.151 109.91 306.151 116.531ZM344.746 132H336.25V100.301H344.746V132ZM335.752 92.0977C335.752 90.8281 336.172 89.7832 337.012 88.9629C337.871 88.1426 339.034 87.7324 340.498 87.7324C341.944 87.7324 343.096 88.1426 343.955 88.9629C344.815 89.7832 345.244 90.8281 345.244 92.0977C345.244 93.3867 344.805 94.4414 343.926 95.2617C343.067 96.082 341.924 96.4922 340.498 96.4922C339.073 96.4922 337.92 96.082 337.041 95.2617C336.182 94.4414 335.752 93.3867 335.752 92.0977ZM353.43 115.916C353.43 110.975 354.534 107.039 356.741 104.109C358.967 101.18 362.004 99.7148 365.852 99.7148C368.938 99.7148 371.487 100.867 373.498 103.172V87H381.994V132H374.348L373.938 128.631C371.828 131.268 369.114 132.586 365.793 132.586C362.063 132.586 359.065 131.121 356.799 128.191C354.553 125.242 353.43 121.15 353.43 115.916ZM361.897 116.531C361.897 119.5 362.414 121.775 363.45 123.357C364.485 124.939 365.989 125.73 367.961 125.73C370.578 125.73 372.424 124.627 373.498 122.42V109.91C372.444 107.703 370.618 106.6 368.02 106.6C363.938 106.6 361.897 109.91 361.897 116.531ZM399.35 100.301L399.614 103.963C401.879 101.131 404.916 99.7148 408.725 99.7148C412.084 99.7148 414.584 100.701 416.225 102.674C417.866 104.646 418.705 107.596 418.744 111.521V132H410.278V111.727C410.278 109.93 409.887 108.631 409.106 107.83C408.325 107.01 407.026 106.6 405.209 106.6C402.827 106.6 401.039 107.615 399.848 109.646V132H391.381V100.301H399.35ZM427.106 102.439L423.121 100.125C424.801 97.4883 425.67 94.7637 425.729 91.9512V87H432.467V91.541C432.467 93.2988 431.979 95.2031 431.002 97.2539C430.026 99.3047 428.727 101.033 427.106 102.439ZM451.58 92.5078V100.301H457V106.512H451.58V122.332C451.58 123.504 451.805 124.344 452.254 124.852C452.703 125.359 453.563 125.613 454.832 125.613C455.77 125.613 456.6 125.545 457.323 125.408V131.824C455.662 132.332 453.953 132.586 452.196 132.586C446.258 132.586 443.231 129.588 443.114 123.592V106.512H438.485V100.301H443.114V92.5078H451.58ZM492.561 132H483.772V89.3438H492.561V132ZM519.889 115.916C519.889 111.053 521.041 107.137 523.346 104.168C525.67 101.199 528.795 99.7148 532.721 99.7148C536.198 99.7148 538.903 100.906 540.836 103.289L541.188 100.301H548.864V130.945C548.864 133.719 548.229 136.131 546.959 138.182C545.709 140.232 543.942 141.795 541.657 142.869C539.371 143.943 536.696 144.48 533.629 144.48C531.305 144.48 529.039 144.012 526.832 143.074C524.625 142.156 522.955 140.965 521.823 139.5L525.573 134.344C527.682 136.707 530.241 137.889 533.248 137.889C535.495 137.889 537.243 137.283 538.493 136.072C539.743 134.881 540.368 133.182 540.368 130.975V129.275C538.414 131.482 535.846 132.586 532.662 132.586C528.854 132.586 525.768 131.102 523.405 128.133C521.061 125.145 519.889 121.189 519.889 116.268V115.916ZM528.356 116.531C528.356 119.402 528.932 121.658 530.084 123.299C531.237 124.92 532.819 125.73 534.83 125.73C537.409 125.73 539.254 124.764 540.368 122.83V109.5C539.235 107.566 537.409 106.6 534.889 106.6C532.858 106.6 531.256 107.43 530.084 109.09C528.932 110.75 528.356 113.23 528.356 116.531ZM572.987 132.586C568.338 132.586 564.549 131.16 561.62 128.309C558.709 125.457 557.254 121.658 557.254 116.912V116.092C557.254 112.908 557.87 110.066 559.1 107.566C560.33 105.047 562.069 103.113 564.315 101.766C566.58 100.398 569.159 99.7148 572.049 99.7148C576.385 99.7148 579.793 101.082 582.274 103.816C584.774 106.551 586.024 110.428 586.024 115.447V118.904H565.838C566.112 120.975 566.932 122.635 568.299 123.885C569.686 125.135 571.434 125.76 573.543 125.76C576.805 125.76 579.354 124.578 581.19 122.215L585.35 126.873C584.08 128.67 582.362 130.076 580.194 131.092C578.026 132.088 575.623 132.586 572.987 132.586ZM572.02 106.57C570.34 106.57 568.973 107.137 567.918 108.27C566.883 109.402 566.219 111.023 565.926 113.133H577.703V112.459C577.664 110.584 577.157 109.139 576.18 108.123C575.203 107.088 573.817 106.57 572.02 106.57ZM603.995 92.5078V100.301H609.414V106.512H603.995V122.332C603.995 123.504 604.219 124.344 604.668 124.852C605.118 125.359 605.977 125.613 607.246 125.613C608.184 125.613 609.014 125.545 609.737 125.408V131.824C608.077 132.332 606.368 132.586 604.61 132.586C598.672 132.586 595.645 129.588 595.528 123.592V106.512H590.899V100.301H595.528V92.5078H603.995ZM177.016 185.857C177.016 182.713 177.621 179.91 178.832 177.449C180.043 174.988 181.782 173.084 184.047 171.736C186.332 170.389 188.979 169.715 191.987 169.715C196.264 169.715 199.75 171.023 202.446 173.641C205.161 176.258 206.674 179.812 206.987 184.305L207.045 186.473C207.045 191.336 205.688 195.242 202.973 198.191C200.258 201.121 196.616 202.586 192.045 202.586C187.475 202.586 183.823 201.121 181.088 198.191C178.373 195.262 177.016 191.277 177.016 186.238V185.857ZM185.483 186.473C185.483 189.48 186.049 191.785 187.182 193.387C188.315 194.969 189.936 195.76 192.045 195.76C194.096 195.76 195.698 194.979 196.85 193.416C198.002 191.834 198.578 189.314 198.578 185.857C198.578 182.908 198.002 180.623 196.85 179.002C195.698 177.381 194.077 176.57 191.987 176.57C189.916 176.57 188.315 177.381 187.182 179.002C186.049 180.604 185.483 183.094 185.483 186.473ZM226.657 191.658L232.545 170.301H241.393L230.7 202H222.614L211.92 170.301H220.768L226.657 191.658ZM262.323 202.586C257.674 202.586 253.885 201.16 250.955 198.309C248.045 195.457 246.59 191.658 246.59 186.912V186.092C246.59 182.908 247.205 180.066 248.436 177.566C249.666 175.047 251.405 173.113 253.651 171.766C255.916 170.398 258.494 169.715 261.385 169.715C265.721 169.715 269.129 171.082 271.61 173.816C274.11 176.551 275.36 180.428 275.36 185.447V188.904H255.174C255.448 190.975 256.268 192.635 257.635 193.885C259.022 195.135 260.77 195.76 262.879 195.76C266.141 195.76 268.69 194.578 270.526 192.215L274.686 196.873C273.416 198.67 271.698 200.076 269.53 201.092C267.362 202.088 264.959 202.586 262.323 202.586ZM261.356 176.57C259.676 176.57 258.309 177.137 257.254 178.27C256.219 179.402 255.555 181.023 255.262 183.133H267.039V182.459C267 180.584 266.493 179.139 265.516 178.123C264.539 177.088 263.153 176.57 261.356 176.57ZM301.006 178.24C299.854 178.084 298.838 178.006 297.959 178.006C294.756 178.006 292.657 179.09 291.661 181.258V202H283.194V170.301H291.192L291.426 174.08C293.125 171.17 295.479 169.715 298.487 169.715C299.424 169.715 300.303 169.842 301.123 170.096L301.006 178.24ZM319.709 162.508V170.301H325.129V176.512H319.709V192.332C319.709 193.504 319.934 194.344 320.383 194.852C320.832 195.359 321.692 195.613 322.961 195.613C323.899 195.613 324.729 195.545 325.452 195.408V201.824C323.791 202.332 322.082 202.586 320.325 202.586C314.387 202.586 311.36 199.588 311.243 193.592V176.512H306.614V170.301H311.243V162.508H319.709ZM341.782 202H333.286V170.301H341.782V202ZM332.787 162.098C332.787 160.828 333.207 159.783 334.047 158.963C334.907 158.143 336.069 157.732 337.534 157.732C338.979 157.732 340.131 158.143 340.991 158.963C341.85 159.783 342.28 160.828 342.28 162.098C342.28 163.387 341.84 164.441 340.961 165.262C340.102 166.082 338.959 166.492 337.534 166.492C336.108 166.492 334.955 166.082 334.077 165.262C333.217 164.441 332.787 163.387 332.787 162.098ZM359.723 170.301L359.987 173.846C362.233 171.092 365.27 169.715 369.098 169.715C373.18 169.715 375.983 171.326 377.506 174.549C379.733 171.326 382.907 169.715 387.028 169.715C390.465 169.715 393.024 170.721 394.703 172.732C396.383 174.725 397.223 177.732 397.223 181.756V202H388.727V181.785C388.727 179.988 388.375 178.68 387.672 177.859C386.969 177.02 385.729 176.6 383.952 176.6C381.412 176.6 379.655 177.811 378.678 180.232L378.707 202H370.241V181.814C370.241 179.979 369.879 178.65 369.157 177.83C368.434 177.01 367.203 176.6 365.465 176.6C363.063 176.6 361.325 177.596 360.25 179.588V202H351.784V170.301H359.723ZM421.346 202.586C416.698 202.586 412.909 201.16 409.979 198.309C407.069 195.457 405.614 191.658 405.614 186.912V186.092C405.614 182.908 406.229 180.066 407.459 177.566C408.69 175.047 410.428 173.113 412.674 171.766C414.94 170.398 417.518 169.715 420.409 169.715C424.745 169.715 428.153 171.082 430.633 173.816C433.133 176.551 434.383 180.428 434.383 185.447V188.904H414.198C414.471 190.975 415.291 192.635 416.659 193.885C418.045 195.135 419.793 195.76 421.903 195.76C425.164 195.76 427.713 194.578 429.549 192.215L433.709 196.873C432.44 198.67 430.721 200.076 428.553 201.092C426.385 202.088 423.983 202.586 421.346 202.586ZM420.379 176.57C418.7 176.57 417.332 177.137 416.278 178.27C415.243 179.402 414.578 181.023 414.286 183.133H426.063V182.459C426.024 180.584 425.516 179.139 424.539 178.123C423.563 177.088 422.176 176.57 420.379 176.57ZM488.694 186.443C488.694 191.326 487.58 195.242 485.354 198.191C483.147 201.121 480.159 202.586 476.389 202.586C473.186 202.586 470.598 201.473 468.625 199.246V214.188H460.159V170.301H468.01L468.303 173.406C470.354 170.945 473.03 169.715 476.33 169.715C480.237 169.715 483.274 171.16 485.442 174.051C487.61 176.941 488.694 180.926 488.694 186.004V186.443ZM480.227 185.828C480.227 182.879 479.7 180.604 478.645 179.002C477.61 177.4 476.096 176.6 474.104 176.6C471.448 176.6 469.621 177.615 468.625 179.646V192.625C469.661 194.715 471.506 195.76 474.162 195.76C478.205 195.76 480.227 192.449 480.227 185.828ZM515.336 202C514.946 201.238 514.662 200.291 514.487 199.158C512.436 201.443 509.77 202.586 506.489 202.586C503.383 202.586 500.805 201.688 498.754 199.891C496.723 198.094 495.707 195.828 495.707 193.094C495.707 189.734 496.948 187.156 499.428 185.359C501.928 183.562 505.532 182.654 510.239 182.635H514.135V180.818C514.135 179.354 513.754 178.182 512.993 177.303C512.25 176.424 511.069 175.984 509.448 175.984C508.022 175.984 506.899 176.326 506.078 177.01C505.278 177.693 504.877 178.631 504.877 179.822H496.411C496.411 177.986 496.977 176.287 498.11 174.725C499.243 173.162 500.844 171.941 502.914 171.062C504.985 170.164 507.309 169.715 509.887 169.715C513.793 169.715 516.889 170.701 519.174 172.674C521.479 174.627 522.631 177.381 522.631 180.936V194.676C522.651 197.684 523.071 199.959 523.891 201.502V202H515.336ZM508.334 196.111C509.584 196.111 510.737 195.838 511.791 195.291C512.846 194.725 513.627 193.973 514.135 193.035V187.586H510.971C506.733 187.586 504.477 189.051 504.203 191.98L504.174 192.479C504.174 193.533 504.545 194.402 505.287 195.086C506.03 195.77 507.045 196.111 508.334 196.111ZM543.502 190.018L549.362 170.301H558.444L545.7 206.922L544.996 208.592C543.102 212.732 539.977 214.803 535.621 214.803C534.391 214.803 533.141 214.617 531.871 214.246V207.83L533.161 207.859C534.762 207.859 535.953 207.615 536.735 207.127C537.536 206.639 538.161 205.828 538.61 204.695L539.606 202.088L528.502 170.301H537.614L543.502 190.018ZM571.698 188.904C571.698 186.17 572.03 183.992 572.694 182.371C573.358 180.75 574.569 179.158 576.327 177.596C578.104 176.014 579.286 174.734 579.871 173.758C580.457 172.762 580.75 171.717 580.75 170.623C580.75 167.322 579.227 165.672 576.18 165.672C574.735 165.672 573.573 166.121 572.694 167.02C571.834 167.898 571.385 169.119 571.346 170.682H562.85C562.889 166.951 564.09 164.031 566.453 161.922C568.836 159.812 572.078 158.758 576.18 158.758C580.321 158.758 583.534 159.764 585.819 161.775C588.104 163.768 589.246 166.59 589.246 170.242C589.246 171.902 588.875 173.475 588.133 174.959C587.391 176.424 586.092 178.055 584.237 179.852L581.864 182.107C580.379 183.533 579.53 185.203 579.315 187.117L579.198 188.904H571.698ZM570.848 197.898C570.848 196.59 571.287 195.516 572.166 194.676C573.065 193.816 574.207 193.387 575.594 193.387C576.981 193.387 578.114 193.816 578.993 194.676C579.891 195.516 580.34 196.59 580.34 197.898C580.34 199.188 579.901 200.252 579.022 201.092C578.162 201.932 577.02 202.352 575.594 202.352C574.168 202.352 573.016 201.932 572.137 201.092C571.278 200.252 570.848 199.188 570.848 197.898Z" fill="black"/>
</g>
<path d="M283.554 394.747C272.63 390.904 262.086 386.509 252 381.595L248.98 361.701L246.168 343.049C266.406 346.547 311.463 372.243 318.753 383.597C324.029 391.731 324.863 408.761 283.554 394.747Z" fill="#407BFF"/>
<path d="M151.402 844.896H122.695C122.223 844.894 121.764 845.012 121.397 845.229C121.031 845.446 120.778 845.749 120.682 846.087L116.03 861.444C115.934 861.772 115.927 862.11 116.012 862.44C116.096 862.77 116.269 863.084 116.521 863.365C116.773 863.645 117.098 863.886 117.479 864.074C117.86 864.262 118.287 864.393 118.738 864.459H119.501C128.77 864.459 135.539 863.927 147.272 863.927C154.457 863.927 176.153 864.485 186.046 864.485C195.939 864.485 197.258 857.338 193.231 856.68C175.007 853.765 161.296 849.761 155.464 845.935C154.345 845.218 152.889 844.846 151.402 844.896V844.896Z" fill="#263238"/>
<path d="M273.14 844.338H244.433C243.962 844.341 243.507 844.461 243.142 844.677C242.776 844.893 242.521 845.194 242.419 845.529L237.768 860.886C237.671 861.212 237.664 861.549 237.746 861.878C237.828 862.206 237.998 862.519 238.246 862.799C238.495 863.08 238.816 863.321 239.193 863.51C239.57 863.7 239.994 863.833 240.441 863.902C240.694 863.927 240.951 863.927 241.205 863.902C250.508 863.902 257.277 863.395 268.975 863.395C276.16 863.395 297.821 863.927 307.749 863.927C317.677 863.927 318.961 856.781 314.9 856.122C296.676 853.233 282.964 849.204 277.132 845.377C276.033 844.671 274.604 844.299 273.14 844.338V844.338Z" fill="#263238"/>
<path d="M136.198 456.353H261.616C273.557 503.895 306.951 696.062 280.187 845.985L237.699 846.948C237.699 846.948 245.578 619.2 208.089 545.633C203.749 585.014 198.647 626.904 194.203 649.205C183.269 704.07 159.178 846.872 159.178 846.872H115.961C115.961 846.872 125.541 709.113 129.638 655.186C134.081 596.722 136.025 468.365 136.198 456.353Z" fill="#263238"/>
<path opacity="0.2" d="M115.961 846.948H159.178C159.178 846.948 183.269 704.045 194.203 649.281C198.647 627.006 203.749 585.116 208.089 545.734C214.208 558.635 218.852 571.883 221.974 585.344C244.363 673.609 237.56 847.05 237.56 847.05L280.013 846.644C306.812 696.721 273.418 503.641 261.477 457.544H136.198C136.025 468.517 134.116 597.381 129.638 655.921C125.541 709.747 115.961 846.948 115.961 846.948Z" fill="white"/>
<path opacity="0.2" d="M208.089 545.633C214.208 558.533 218.852 571.782 221.974 585.242C225.445 550.22 211.56 513.043 211.56 513.043L208.089 545.633Z" fill="black"/>
<path d="M261.616 457.443H136.198C135.818 439.144 133.894 420.881 130.436 402.755C128.527 392.846 125.958 382.481 122.556 372.345C120.07 364.812 116.951 357.398 113.218 350.145C113.218 350.145 168.759 333.546 246.203 343.1C256.028 380.8 261.186 419.068 261.616 457.443Z" fill="#407BFF"/>
<path d="M173.966 467.656L252.243 467.681L251.063 456.429L173.966 457.113V467.656Z" fill="black"/>
<path d="M256.131 467.681H264.393L261.616 456.353L254.916 456.404L256.131 467.681Z" fill="black"/>
<path d="M170.078 457.164L136.198 457.443V467.656H170.078V457.164Z" fill="black"/>
<path d="M227.181 455.669C226.209 455.035 204.548 455.263 202.882 456.683C202.882 456.683 202.049 467.428 203.055 468.365C204.062 469.303 224.82 467.985 226.764 467.934C228.708 467.884 228.014 456.302 227.181 455.669ZM224.785 466.895C223.154 466.895 206.145 468.01 205.312 467.225C204.843 464.034 204.785 460.819 205.138 457.62C206.457 456.48 224.265 456.277 225.063 456.809C225.861 457.341 226.382 466.845 224.785 466.895V466.895Z" fill="white"/>
<path d="M223.397 459.926H219.127C218.731 459.932 218.352 460.049 218.069 460.251C217.785 460.453 217.617 460.727 217.6 461.016V461.016C217.585 461.176 217.617 461.337 217.693 461.488C217.769 461.639 217.888 461.776 218.042 461.891C218.196 462.006 218.382 462.096 218.587 462.155C218.792 462.214 219.011 462.24 219.231 462.233L223.501 462.106C223.716 462.1 223.926 462.062 224.12 461.994C224.313 461.925 224.486 461.829 224.626 461.71C224.766 461.591 224.871 461.452 224.934 461.302C224.997 461.152 225.018 460.995 224.994 460.839C224.913 460.575 224.71 460.34 224.419 460.174C224.128 460.007 223.767 459.92 223.397 459.926V459.926Z" fill="white"/>
<path opacity="0.2" d="M130.436 402.755C128.527 392.846 125.958 382.482 122.556 372.345C124.103 371.515 125.796 370.842 127.59 370.343C127.59 370.343 139.67 388.488 130.436 402.755Z" fill="black"/>
<path d="M113.218 350.095C87.635 358.964 52.7486 413.449 59.8647 431.898C66.9809 450.347 129.638 477.058 129.638 477.058L109.99 490.945C109.99 490.945 125.854 500.778 133.005 499.637C140.156 498.497 148.348 485.75 147.827 479.364C147.306 472.978 136.372 467.656 136.372 467.656C136.372 467.656 91.87 432.937 90.9675 424.904C88.7806 405.568 123.355 374.22 123.355 374.22L113.218 350.095Z" fill="#B97964"/>
<path d="M113.218 350.095C98.7432 352.173 54.8314 394.291 58.9275 428.654L93.9875 424.98C93.9875 424.98 104.401 399.106 125.958 383.444C125.958 383.444 130.853 373.941 124.604 358.584C122.279 352.806 113.218 350.095 113.218 350.095Z" fill="#407BFF"/>
<path d="M56.4976 427.286L96.3479 423.586V427.286L56.4976 434.23V427.286Z" fill="#407BFF"/>
<path opacity="0.2" d="M56.4976 427.286L96.3479 423.586V427.286L56.4976 434.23V427.286Z" fill="white"/>
<path opacity="0.2" d="M283.554 394.747C272.63 390.904 262.086 386.509 252 381.595L248.98 361.701C256.235 364.59 282.964 376.577 283.554 394.747Z" fill="black"/>
<path d="M294.593 375.208C294.593 375.208 246.828 371.002 238.15 372.041C229.472 373.08 210.657 385.168 209.928 385.599C209.199 386.029 223.119 399.03 226.07 398.574C229.02 398.117 244.329 386.688 244.745 385.599C245.162 384.509 245.995 382.71 245.995 382.71L291.469 393.404C291.469 393.404 301.605 382.431 294.593 375.208Z" fill="#B97964"/>
<path d="M241.656 372.041C244.606 375.489 246.148 379.48 246.099 383.546H250.924C252.147 381.837 252.873 379.963 253.059 378.04C253.244 376.117 252.883 374.187 252 372.37L241.656 372.041Z" fill="#407BFF"/>
<path opacity="0.2" d="M241.656 372.041C244.606 375.489 246.148 379.48 246.099 383.546H250.924C252.147 381.837 252.873 379.963 253.059 378.04C253.244 376.117 252.883 374.187 252 372.37L241.656 372.041Z" fill="black"/>
<path d="M253.632 373.206C253.632 374.499 250.508 375.36 247.002 375.158C243.496 374.955 240.719 373.764 240.857 372.624C240.996 371.483 243.947 370.469 247.488 370.672C251.028 370.875 253.771 371.939 253.632 373.206Z" fill="#263238"/>
<path d="M252 372.294C252 373.232 249.744 373.891 247.14 373.739C244.537 373.586 242.524 372.7 242.628 371.762C242.732 370.824 244.919 370.191 247.488 370.343C250.056 370.495 252.104 371.356 252 372.294Z" fill="#407BFF"/>
<path opacity="0.7" d="M252 372.294C252 373.232 249.744 373.891 247.14 373.739C244.537 373.586 242.524 372.7 242.628 371.762C242.732 370.824 244.919 370.191 247.488 370.343C250.056 370.495 252.104 371.356 252 372.294Z" fill="white"/>
<path d="M290.323 394.848L296.12 373.13L300.841 374.448L299.21 397.307L290.323 394.848Z" fill="#407BFF"/>
<path opacity="0.2" d="M290.323 394.848L296.12 373.13L300.841 374.448L299.21 397.307L290.323 394.848Z" fill="white"/>
<path d="M141.891 350.095C141.891 350.095 147.098 340.439 172.057 337.272C197.015 334.104 224.404 342.467 231.068 348.549L209.651 350.095L198.785 367.352L174.105 351.97L141.891 350.095Z" fill="#407BFF"/>
<path opacity="0.2" d="M141.891 350.095C141.891 350.095 147.098 340.439 172.057 337.272C197.015 334.104 224.404 342.467 231.068 348.549L209.651 350.095L198.785 367.352L174.105 351.97L141.891 350.095Z" fill="white"/>
<path d="M155.36 344.773C160.15 347.94 167.856 349.309 175.215 349.841L197.64 365.046L204.201 348.422C204.201 348.422 212.705 346.217 208.991 342.188C198.577 340.946 193.613 337.398 191.635 332.887C190.491 330.088 190.137 327.148 190.593 324.246C190.748 322.621 191.038 321.005 191.461 319.405L156.575 300.551C161.053 312.842 166.641 335.751 155.36 344.773Z" fill="#B97964"/>
<path opacity="0.2" d="M164.524 312.386C165.912 327.591 183.095 331.874 191.531 332.659C190.387 329.86 190.033 326.92 190.489 324.018L164.524 312.386Z" fill="black"/>
<path d="M225.653 268.316C225.653 268.316 229.645 287.88 212.358 297.029C195.071 306.177 195.002 261.905 195.002 261.905L225.653 268.316Z" fill="#263238"/>
<path d="M162.059 315.934C165.679 319.845 170.957 322.782 177.084 324.292C183.21 325.803 189.846 325.805 195.974 324.296C203.957 322.445 210.681 318.451 214.788 313.121C215.343 312.394 215.864 311.634 216.35 310.84C224.855 296.294 227.562 270.876 206.526 261.372C199.339 258.073 190.652 256.992 182.373 258.365C174.095 259.738 166.901 263.454 162.372 268.696C159.663 271.794 158.019 275.324 157.581 278.985C155.117 295.964 152.513 305.873 162.059 315.934Z" fill="#B97964"/>
<path d="M191.635 288.058C191.183 289.401 192.016 290.592 193.266 290.82C194.516 291.048 195.765 289.984 196.078 288.615C196.39 287.247 195.661 286.081 194.446 285.853C193.231 285.625 191.982 286.689 191.635 288.058Z" fill="#263238"/>
<path d="M212.879 290.718C212.428 292.062 213.295 293.253 214.51 293.455C215.725 293.658 217.01 292.619 217.322 291.251C217.634 289.882 216.905 288.716 215.691 288.488C214.476 288.26 213.191 289.401 212.879 290.718Z" fill="#263238"/>
<path d="M205.971 290.541C207.214 295.014 209.305 299.338 212.185 303.389C210.74 303.904 209.159 304.181 207.552 304.203C205.945 304.225 204.351 303.991 202.882 303.516L205.971 290.541Z" fill="#A24E3F"/>
<path d="M186.358 282.305C186.555 282.346 186.762 282.351 186.961 282.32C187.161 282.289 187.347 282.223 187.504 282.127C188.493 281.401 189.704 280.857 191.038 280.54C192.372 280.223 193.79 280.141 195.175 280.303C195.319 280.329 195.468 280.334 195.615 280.318C195.761 280.301 195.902 280.264 196.028 280.207C196.154 280.15 196.263 280.076 196.349 279.988C196.435 279.9 196.497 279.8 196.529 279.695C196.565 279.593 196.573 279.487 196.552 279.383C196.532 279.28 196.483 279.18 196.408 279.09C196.334 279 196.236 278.922 196.119 278.861C196.003 278.799 195.871 278.755 195.731 278.732V278.732C193.99 278.5 192.198 278.576 190.507 278.956C188.815 279.335 187.273 280.006 186.011 280.911C185.803 281.067 185.687 281.276 185.687 281.494C185.687 281.712 185.803 281.921 186.011 282.077C186.107 282.167 186.225 282.245 186.358 282.305V282.305Z" fill="#263238"/>
<path d="M184.97 303.846C187.72 303.974 190.388 304.579 192.755 305.611C195.121 306.642 197.117 308.069 198.577 309.776C198.642 309.877 198.653 309.993 198.609 310.101C198.564 310.208 198.466 310.3 198.334 310.358C198.272 310.389 198.201 310.41 198.127 310.419C198.053 310.428 197.977 310.425 197.904 310.411C197.832 310.396 197.764 310.371 197.707 310.335C197.649 310.3 197.603 310.256 197.57 310.206V310.206C196.184 308.642 194.317 307.335 192.118 306.389C189.918 305.443 187.447 304.884 184.9 304.758C184.75 304.751 184.609 304.703 184.505 304.623C184.402 304.543 184.345 304.437 184.345 304.327V304.327C184.354 304.217 184.42 304.114 184.53 304.039C184.639 303.963 184.784 303.921 184.935 303.922L184.97 303.846Z" fill="#263238"/>
<path d="M223.258 286.512C223.461 286.562 223.68 286.562 223.883 286.512C224.164 286.452 224.402 286.317 224.551 286.133C224.699 285.95 224.746 285.731 224.681 285.523V285.523C224.224 284.261 223.353 283.098 222.144 282.136C220.934 281.173 219.423 280.44 217.739 279.999C217.597 279.968 217.449 279.958 217.302 279.969C217.156 279.981 217.014 280.013 216.884 280.065C216.755 280.117 216.641 280.187 216.55 280.271C216.458 280.356 216.39 280.453 216.35 280.556V280.556C216.274 280.765 216.311 280.986 216.453 281.175C216.595 281.364 216.832 281.505 217.114 281.57V281.57C218.419 281.951 219.583 282.551 220.512 283.322C221.441 284.092 222.108 285.011 222.46 286.005C222.532 286.128 222.641 286.237 222.779 286.325C222.918 286.413 223.081 286.477 223.258 286.512V286.512Z" fill="#263238"/>
<path d="M192.121 251.692C189.344 251.413 186.567 251.185 183.79 251.084C175.727 250.536 167.621 251.716 160.463 254.479C144.391 261.449 147.168 279.264 149.25 290.82C151.993 306.177 160.254 313.121 160.254 313.121C155.256 305.797 156.783 291.529 160.011 291.175C163.24 290.82 163.031 293.557 163.031 293.557C170.286 290.262 176.916 280.886 174.556 274.348C172.82 269.279 180.561 265.579 187.053 267.936L189.031 268.646L192.121 269.685V251.692Z" fill="#263238"/>
<path d="M144.391 291.555C145.215 293.598 146.584 295.503 148.418 297.16C150.253 298.817 152.518 300.193 155.082 301.21C162.025 303.922 167.093 299.715 166.641 294.317C166.155 289.527 162.094 282.204 154.457 281.646C152.773 281.548 151.081 281.764 149.543 282.274C148.004 282.785 146.669 283.572 145.662 284.563C144.655 285.554 144.01 286.716 143.788 287.939C143.565 289.162 143.773 290.406 144.391 291.555V291.555Z" fill="#B97964"/>
<path d="M201.424 266.289C199.896 268.24 203.715 274.525 195.071 273.03C186.428 271.535 185.838 274.196 179.728 278.529C173.619 282.862 161.192 276.274 161.192 276.274L147.654 277.566C147.654 277.566 137.726 271.078 143.939 267.581C150.153 264.084 151.507 259.117 155.29 253.263C159.074 247.409 175.944 239.807 193.822 248.702C193.822 248.702 203.333 246.319 207.533 248.043C210.67 249.7 213.246 251.858 215.066 254.353C215.643 253.834 216.366 253.411 217.186 253.114C218.006 252.817 218.904 252.651 219.82 252.63C220.735 252.608 221.646 252.731 222.491 252.988C223.335 253.246 224.094 253.634 224.716 254.125C229.576 257.825 225.723 271.053 229.888 274.398C234.054 277.743 224.716 281.823 224.716 281.823C224.716 281.823 217.392 280.556 217.392 276.628C217.392 269.685 216.003 267.201 211.352 265.934C210.487 265.719 209.553 265.709 208.68 265.905C207.808 266.101 207.042 266.492 206.492 267.024C206.492 267.024 203.715 263.197 201.424 266.289Z" fill="#263238"/>
<defs>
<filter id="filter0_b_8_5" x="687.247" y="89.7935" width="447.4" height="130.418" filterUnits="userSpaceOnUse" color-interpolation-filters="sRGB">
<feFlood flood-opacity="0" result="BackgroundImageFix"/>
<feGaussianBlur in="BackgroundImage" stdDeviation="2"/>
<feComposite in2="SourceAlpha" operator="in" result="effect1_backgroundBlur_8_5"/>
<feBlend mode="normal" in="SourceGraphic" in2="effect1_backgroundBlur_8_5" result="shape"/>
</filter>
<filter id="filter1_b_8_5" x="149.643" y="83" width="464.094" height="135.803" filterUnits="userSpaceOnUse" color-interpolation-filters="sRGB">
<feFlood flood-opacity="0" result="BackgroundImageFix"/>
<feGaussianBlur in="BackgroundImage" stdDeviation="2"/>
<feComposite in2="SourceAlpha" operator="in" result="effect1_backgroundBlur_8_5"/>
<feBlend mode="normal" in="SourceGraphic" in2="effect1_backgroundBlur_8_5" result="shape"/>
</filter>
</defs>
</svg>
